<?xml version="1.0" standalone="no"?>
<!DOCTYPE svg PUBLIC "-//W3C//DTD SVG 20010904//EN"
 "http://www.w3.org/TR/2001/REC-SVG-20010904/DTD/svg10.dtd">
<svg version="1.0" xmlns="http://www.w3.org/2000/svg"
 width="16.000000pt" height="16.000000pt" viewBox="0 0 16.000000 16.000000"
 preserveAspectRatio="xMidYMid meet">
<metadata>
Created by potrace 1.11, written by Peter Selinger 2001-2013
</metadata>
<g transform="translate(0.000000,16.000000) scale(0.009091,-0.009091)"
fill="#000000" stroke="none">
<path d="M653 1600 c-94 -54 -132 -139 -130 -296 l2 -99 357 -3 356 -2 -2 113
c-2 97 -7 121 -28 168 -30 65 -69 106 -125 131 -37 16 -66 19 -211 18 -166 -2
-170 -2 -219 -30z m411 -75 c35 -33 36 -84 1 -120 -28 -27 -27 -27 -231 -27
-59 0 -111 5 -123 12 -32 17 -51 67 -39 102 19 53 38 58 209 58 152 0 157 -1
183 -25z m-82 -212 c22 -20 23 -41 1 -65 -13 -15 -32 -18 -104 -18 -93 0 -119
11 -119 50 0 39 27 50 117 50 66 0 91 -4 105 -17z"/>
<path d="M750 1500 c-25 -25 -25 -45 0 -70 24 -24 29 -24 58 -4 24 17 29 56
10 71 -28 21 -49 22 -68 3z"/>
<path d="M953 1507 c-26 -11 -33 -34 -20 -64 25 -58 108 -16 86 43 -9 26 -37
34 -66 21z"/>
<path d="M314 1192 c-49 -8 -80 -71 -61 -125 16 -46 63 -62 125 -43 16 5 17
-16 17 -257 1 -237 2 -265 19 -293 29 -49 64 -64 149 -64 l75 0 -1 -95 0 -95
-39 0 c-54 0 -78 -15 -78 -48 0 -47 14 -52 137 -52 l112 0 3 117 3 117 95 -1
c52 -1 101 -2 108 -2 9 -1 12 -25 11 -93 -2 -156 -16 -138 110 -138 86 0 113
3 125 16 38 38 4 84 -62 84 l-42 0 0 94 0 94 84 3 c67 3 88 8 106 24 49 44 51
60 52 336 1 142 2 259 3 259 1 0 16 -5 34 -11 59 -21 111 20 111 87 0 83 -111
119 -162 52 -16 -22 -17 -22 -38 -3 -21 19 -40 20 -415 23 -386 3 -414 1 -457
-30 -15 -11 -20 -9 -33 9 -17 24 -60 40 -91 35z m607 -49 c25 -61 32 -71 55
-76 14 -2 37 5 58 19 42 29 51 29 77 5 19 -18 19 -20 4 -59 -15 -37 -15 -42 0
-66 14 -22 22 -24 64 -22 47 3 49 3 59 -31 10 -33 9 -35 -29 -60 -54 -36 -54
-70 1 -107 39 -26 40 -27 27 -58 -12 -30 -16 -32 -54 -30 -34 3 -45 -1 -66
-23 -22 -24 -23 -30 -12 -54 23 -45 22 -61 -7 -78 -25 -16 -28 -16 -67 11 -36
25 -42 27 -68 14 -20 -9 -31 -24 -37 -51 -7 -28 -16 -39 -34 -44 -35 -8 -54 7
-66 52 -16 55 -54 67 -101 31 -40 -31 -43 -31 -73 -8 -21 17 -22 19 -8 57 12
35 12 43 -2 68 -14 23 -22 27 -64 27 -44 0 -50 3 -59 27 -9 24 -7 31 15 49 13
12 30 24 37 26 7 2 14 18 15 35 2 27 -4 36 -37 59 -31 21 -38 31 -33 48 10 33
22 41 66 41 32 0 45 6 60 25 17 24 18 29 4 68 -14 40 -14 42 7 57 30 21 44 19
79 -10 27 -23 32 -24 61 -12 18 8 34 22 36 33 9 50 20 64 51 64 24 0 33 -6 41
-27z"/>
<path d="M959 993 c-1 -4 -1 -11 0 -15 0 -4 -16 -5 -37 -2 -39 4 -35 0 9 -10
48 -11 131 -109 111 -131 -4 -5 -1 -5 5 -1 17 9 -7 58 -50 104 -25 26 -28 32
-13 32 10 0 16 6 14 13 -5 14 -37 23 -39 10z"/>
<path d="M783 952 c-42 -27 -78 -81 -70 -105 2 -7 7 3 11 20 8 35 52 78 101
99 17 7 23 13 15 13 -8 1 -34 -12 -57 -27z"/>
<path d="M912 935 c43 -14 58 -27 96 -81 7 -11 5 -4 -5 15 -23 43 -58 69 -103
76 -29 4 -27 3 12 -10z"/>
<path d="M785 909 c-19 -17 -35 -36 -35 -43 0 -6 8 -1 18 12 10 12 31 32 47
42 17 11 25 20 18 20 -7 0 -28 -14 -48 -31z"/>
<path d="M819 905 c-73 -40 -81 -155 -14 -199 35 -23 96 -28 129 -11 33 18 36
18 36 5 0 -5 -18 -15 -40 -21 -22 -7 -40 -16 -40 -20 0 -14 74 22 97 47 30 33
49 102 32 118 -9 8 -10 8 -5 -1 13 -23 -24 -126 -39 -111 -4 4 0 17 9 30 20
29 20 80 0 119 -26 52 -110 74 -165 44z"/>
<path d="M672 893 c2 -10 10 -18 18 -18 8 0 16 8 18 18 2 12 -3 17 -18 17 -15
0 -20 -5 -18 -17z"/>
<path d="M736 835 c-3 -8 -1 -15 4 -15 6 0 10 7 10 15 0 8 -2 15 -4 15 -2 0
-6 -7 -10 -15z"/>
<path d="M702 810 c0 -14 2 -19 5 -12 2 6 2 18 0 25 -3 6 -5 1 -5 -13z"/>
<path d="M1048 795 c-3 -14 -2 -27 1 -30 4 -2 8 10 9 26 3 36 -4 38 -10 4z"/>
<path d="M730 795 c0 -8 2 -15 4 -15 2 0 6 7 10 15 3 8 1 15 -4 15 -6 0 -10
-7 -10 -15z"/>
<path d="M706 760 c7 -30 41 -80 66 -98 18 -13 18 -15 2 -26 -19 -14 -11 -36
13 -36 10 0 14 6 10 20 -6 23 -6 23 27 10 16 -6 27 -6 31 1 4 5 3 9 -2 8 -41
-7 -105 43 -134 106 -11 22 -16 29 -13 15z"/>
<path d="M740 767 c-1 -35 73 -107 111 -107 8 0 -4 9 -27 20 -24 12 -49 35
-62 58 -12 20 -22 33 -22 29z"/>
<path d="M1035 731 c-3 -11 -25 -37 -48 -57 -25 -22 -32 -31 -17 -24 13 7 29
18 35 24 21 21 48 67 42 72 -3 3 -8 -4 -12 -15z"/>
<path d="M1057 724 c-14 -14 -7 -35 11 -32 9 2 17 10 17 17 0 16 -18 25 -28
15z"/>
<path d="M875 630 c-3 -5 -1 -10 4 -10 6 0 11 5 11 10 0 6 -2 10 -4 10 -3 0
-8 -4 -11 -10z"/>
<path d="M906 628 c3 -4 11 -5 19 -1 21 7 19 12 -4 10 -11 0 -18 -5 -15 -9z"/>
<path d="M224 998 c-3 -11 -2 -24 3 -28 12 -12 125 -40 135 -34 7 5 12 44 5
44 -1 0 -32 9 -69 19 -67 19 -67 19 -74 -1z"/>
<path d="M1485 1005 c-5 -2 -29 -9 -52 -15 -32 -8 -43 -16 -43 -30 0 -28 11
-30 76 -14 68 18 77 24 68 47 -6 16 -25 20 -49 12z"/>
<path d="M206 935 c-11 -29 -7 -32 59 -49 83 -21 85 -20 85 8 0 21 -7 26 -47
35 -27 6 -58 13 -69 17 -14 4 -23 0 -28 -11z"/>
<path d="M1463 931 c-55 -14 -62 -18 -57 -36 9 -29 8 -28 66 -14 62 15 65 16
77 18 13 2 0 51 -13 50 -6 -1 -39 -9 -73 -18z"/>
<path d="M190 866 c0 -9 -1 -19 -2 -23 -3 -6 134 -45 138 -40 1 1 4 11 8 22 5
17 0 23 -26 33 -18 6 -52 14 -75 18 -36 5 -43 4 -43 -10z"/>
<path d="M1477 865 c-58 -16 -61 -18 -52 -44 5 -17 12 -19 38 -14 67 13 102
30 102 49 0 24 -25 27 -88 9z"/>
<path d="M177 813 c-20 -20 -5 -43 36 -54 70 -19 99 -17 103 7 3 17 -5 22 -49
33 -29 7 -59 15 -68 17 -8 2 -18 1 -22 -3z"/>
<path d="M1520 806 c-40 -15 -44 -16 -65 -16 -19 0 -20 -39 -1 -46 17 -7 136
25 136 36 0 19 -13 40 -24 39 -6 0 -27 -6 -46 -13z"/>
<path d="M159 738 c-14 -26 -6 -32 69 -51 53 -13 64 -13 69 -1 10 26 -4 37
-65 54 -61 17 -63 17 -73 -2z"/>
<path d="M1521 739 c-35 -10 -65 -20 -68 -23 -3 -2 0 -13 6 -25 11 -19 14 -19
56 -6 25 7 47 13 48 13 1 -1 12 2 23 6 16 5 20 12 17 27 -8 27 -10 28 -82 8z"/>
<path d="M138 667 c-5 -24 -1 -26 64 -42 38 -9 71 -15 73 -13 1 1 5 12 9 24 6
18 0 22 -46 33 -29 6 -63 14 -74 17 -17 4 -22 0 -26 -19z"/>
<path d="M1589 686 c-2 -3 -16 -7 -29 -10 -89 -17 -91 -18 -88 -40 3 -24 32
-25 106 -5 34 9 42 16 42 35 0 21 -18 32 -31 20z"/>
<path d="M123 614 c-11 -28 7 -43 69 -57 59 -13 64 -13 72 5 12 24 8 27 -69
48 -56 15 -67 16 -72 4z"/>
<path d="M1561 610 c-64 -17 -78 -28 -68 -54 5 -11 16 -11 69 1 73 17 85 25
72 51 -9 18 -12 18 -73 2z"/>
<path d="M65 546 c-15 -44 -25 -98 -20 -106 13 -21 46 -10 56 18 9 28 10 28
55 18 43 -10 45 -13 40 -39 -5 -22 -1 -29 17 -36 12 -5 25 -7 28 -5 9 5 33
104 26 110 -2 2 -48 15 -101 28 -68 16 -99 20 -101 12z"/>
<path d="M1615 539 c-38 -9 -83 -20 -98 -23 -25 -6 -28 -10 -24 -39 6 -39 18
-87 22 -87 2 0 15 4 29 10 22 8 24 13 16 34 -11 30 -7 33 48 42 38 6 41 5 48
-21 6 -23 10 -26 33 -20 14 4 27 8 28 9 3 3 -18 89 -25 101 -5 9 -25 7 -77 -6z"/>
</g>
</svg>
